# MagicaVoxel @ ephtracy

# material
mtllib coin.mtl
usemtl palette

# normals
vn -1 0 0
vn 1 0 0
vn 0 0 1
vn 0 0 -1
vn 0 -1 0
vn 0 1 0

# texcoords
vt 0.0410156 0.5
vt 0.0449219 0.5
vt 0.0644531 0.5
vt 0.205078 0.5
vt 0.208984 0.5

# verts
v -10 18 3
v -10 18 -3
v -10 20 3
v -10 20 -3
v -9 18 5
v -9 18 3
v -9 18 -3
v -9 18 -5
v -9 20 5
v -9 20 3
v -9 20 -3
v -9 20 -5
v -8 18 7
v -8 18 6
v -8 18 5
v -8 18 -5
v -8 18 -6
v -8 18 -7
v -8 19 6
v -8 19 5
v -8 19 -5
v -8 19 -6
v -8 20 7
v -8 20 5
v -8 20 -5
v -8 20 -7
v -7 18 8
v -7 18 7
v -7 18 -7
v -7 18 -8
v -7 20 8
v -7 20 7
v -7 20 -7
v -7 20 -8
v -5 18 9
v -5 18 8
v -5 18 -8
v -5 18 -9
v -5 20 9
v -5 20 8
v -5 20 -8
v -5 20 -9
v -3 18 10
v -3 18 9
v -3 18 -9
v -3 18 -10
v -3 19 9
v -3 19 -9
v -3 20 10
v -3 20 9
v -3 20 -9
v -3 20 -10
v 3 18 10
v 3 18 9
v 3 18 -9
v 3 18 -10
v 3 19 9
v 3 19 -9
v 3 20 10
v 3 20 9
v 3 20 -9
v 3 20 -10
v 5 18 9
v 5 18 8
v 5 18 -8
v 5 18 -9
v 5 20 9
v 5 20 8
v 5 20 -8
v 5 20 -9
v 7 18 8
v 7 18 7
v 7 18 -7
v 7 18 -8
v 7 20 8
v 7 20 7
v 7 20 -7
v 7 20 -8
v 8 18 7
v 8 18 6
v 8 18 5
v 8 18 -5
v 8 18 -6
v 8 18 -7
v 8 19 6
v 8 19 5
v 8 19 -5
v 8 19 -6
v 8 20 7
v 8 20 5
v 8 20 -5
v 8 20 -7
v 9 18 5
v 9 18 3
v 9 18 -3
v 9 18 -5
v 9 20 5
v 9 20 3
v 9 20 -3
v 9 20 -5
v 10 18 3
v 10 18 -3
v 10 20 3
v 10 20 -3
v -3 18 10
v -3 20 10
v 3 18 10
v 3 20 10
v -5 18 9
v -5 20 9
v -4 18 9
v -4 19 9
v -3 18 9
v -3 19 9
v -3 20 9
v 3 18 9
v 3 19 9
v 3 20 9
v 4 18 9
v 4 19 9
v 5 18 9
v 5 20 9
v -7 18 8
v -7 20 8
v -5 18 8
v -5 20 8
v 5 18 8
v 5 20 8
v 7 18 8
v 7 20 8
v -8 18 7
v -8 20 7
v -7 18 7
v -7 20 7
v 7 18 7
v 7 20 7
v 8 18 7
v 8 20 7
v -9 18 5
v -9 20 5
v -8 18 5
v -8 19 5
v -8 20 5
v 8 18 5
v 8 19 5
v 8 20 5
v 9 18 5
v 9 20 5
v -10 18 3
v -10 20 3
v -9 18 3
v -9 20 3
v 9 18 3
v 9 20 3
v 10 18 3
v 10 20 3
v -10 18 -3
v -10 20 -3
v -9 18 -3
v -9 20 -3
v 9 18 -3
v 9 20 -3
v 10 18 -3
v 10 20 -3
v -9 18 -5
v -9 20 -5
v -8 18 -5
v -8 19 -5
v -8 20 -5
v 8 18 -5
v 8 19 -5
v 8 20 -5
v 9 18 -5
v 9 20 -5
v -8 18 -7
v -8 20 -7
v -7 18 -7
v -7 20 -7
v 7 18 -7
v 7 20 -7
v 8 18 -7
v 8 20 -7
v -7 18 -8
v -7 20 -8
v -5 18 -8
v -5 20 -8
v 5 18 -8
v 5 20 -8
v 7 18 -8
v 7 20 -8
v -5 18 -9
v -5 20 -9
v -4 18 -9
v -4 19 -9
v -3 18 -9
v -3 19 -9
v -3 20 -9
v 3 18 -9
v 3 19 -9
v 3 20 -9
v 4 18 -9
v 4 19 -9
v 5 18 -9
v 5 20 -9
v -3 18 -10
v -3 20 -10
v 3 18 -10
v 3 20 -10
v -3 18 10
v 3 18 10
v -5 18 9
v -4 18 9
v -3 18 9
v 3 18 9
v 4 18 9
v 5 18 9
v -7 18 8
v -5 18 8
v -4 18 8
v -3 18 8
v 3 18 8
v 4 18 8
v 5 18 8
v 7 18 8
v -8 18 7
v -7 18 7
v -5 18 7
v -3 18 7
v 3 18 7
v 5 18 7
v 7 18 7
v 8 18 7
v -8 18 6
v -7 18 6
v -6 18 6
v -5 18 6
v -2 18 6
v -1 18 6
v 1 18 6
v 2 18 6
v 5 18 6
v 6 18 6
v 7 18 6
v 8 18 6
v -9 18 5
v -8 18 5
v -7 18 5
v -6 18 5
v -5 18 5
v -4 18 5
v 4 18 5
v 5 18 5
v 6 18 5
v 7 18 5
v 8 18 5
v 9 18 5
v -5 18 4
v -4 18 4
v 4 18 4
v 5 18 4
v -10 18 3
v -9 18 3
v -8 18 3
v -7 18 3
v 7 18 3
v 8 18 3
v 9 18 3
v 10 18 3
v -7 18 2
v -2 18 2
v -1 18 2
v 1 18 2
v 2 18 2
v 7 18 2
v -7 18 1
v -2 18 1
v -1 18 1
v 1 18 1
v 2 18 1
v 7 18 1
v -7 18 -1
v -2 18 -1
v -1 18 -1
v 1 18 -1
v 2 18 -1
v 7 18 -1
v -7 18 -2
v -2 18 -2
v -1 18 -2
v 1 18 -2
v 2 18 -2
v 7 18 -2
v -10 18 -3
v -9 18 -3
v -8 18 -3
v -7 18 -3
v 7 18 -3
v 8 18 -3
v 9 18 -3
v 10 18 -3
v -5 18 -4
v -4 18 -4
v 4 18 -4
v 5 18 -4
v -9 18 -5
v -8 18 -5
v -7 18 -5
v -6 18 -5
v -5 18 -5
v -4 18 -5
v 4 18 -5
v 5 18 -5
v 6 18 -5
v 7 18 -5
v 8 18 -5
v 9 18 -5
v -8 18 -6
v -7 18 -6
v -6 18 -6
v -5 18 -6
v 5 18 -6
v 6 18 -6
v 7 18 -6
v 8 18 -6
v -8 18 -7
v -7 18 -7
v -5 18 -7
v -3 18 -7
v -2 18 -7
v -1 18 -7
v 1 18 -7
v 2 18 -7
v 3 18 -7
v 5 18 -7
v 7 18 -7
v 8 18 -7
v -7 18 -8
v -5 18 -8
v -4 18 -8
v -3 18 -8
v 3 18 -8
v 4 18 -8
v 5 18 -8
v 7 18 -8
v -5 18 -9
v -4 18 -9
v -3 18 -9
v 3 18 -9
v 4 18 -9
v 5 18 -9
v -3 18 -10
v 3 18 -10
v -3 20 10
v 3 20 10
v -5 20 9
v -3 20 9
v 3 20 9
v 5 20 9
v -7 20 8
v -5 20 8
v -3 20 8
v 3 20 8
v 5 20 8
v 7 20 8
v -8 20 7
v -7 20 7
v -5 20 7
v -3 20 7
v 3 20 7
v 5 20 7
v 7 20 7
v 8 20 7
v -6 20 6
v -5 20 6
v -2 20 6
v 2 20 6
v 5 20 6
v 6 20 6
v -9 20 5
v -8 20 5
v -7 20 5
v -6 20 5
v -2 20 5
v -1 20 5
v 1 20 5
v 2 20 5
v 6 20 5
v 7 20 5
v 8 20 5
v 9 20 5
v -4 20 4
v -3 20 4
v 3 20 4
v 4 20 4
v -10 20 3
v -9 20 3
v -8 20 3
v -7 20 3
v -4 20 3
v -3 20 3
v 3 20 3
v 4 20 3
v 7 20 3
v 8 20 3
v 9 20 3
v 10 20 3
v -6 20 2
v -5 20 2
v -2 20 2
v -1 20 2
v 1 20 2
v 2 20 2
v 5 20 2
v 6 20 2
v -5 20 1
v -2 20 1
v 2 20 1
v 5 20 1
v -5 20 -1
v -2 20 -1
v 2 20 -1
v 5 20 -1
v -6 20 -2
v -5 20 -2
v -2 20 -2
v -1 20 -2
v 1 20 -2
v 2 20 -2
v 5 20 -2
v 6 20 -2
v -10 20 -3
v -9 20 -3
v -8 20 -3
v -7 20 -3
v -4 20 -3
v -3 20 -3
v 3 20 -3
v 4 20 -3
v 7 20 -3
v 8 20 -3
v 9 20 -3
v 10 20 -3
v -4 20 -4
v -3 20 -4
v 3 20 -4
v 4 20 -4
v -9 20 -5
v -8 20 -5
v -7 20 -5
v -6 20 -5
v -2 20 -5
v -1 20 -5
v 1 20 -5
v 2 20 -5
v 6 20 -5
v 7 20 -5
v 8 20 -5
v 9 20 -5
v -7 20 -6
v -6 20 -6
v -5 20 -6
v -2 20 -6
v 2 20 -6
v 5 20 -6
v 6 20 -6
v -8 20 -7
v -7 20 -7
v -6 20 -7
v -5 20 -7
v -3 20 -7
v 3 20 -7
v 5 20 -7
v 7 20 -7
v 8 20 -7
v -7 20 -8
v -5 20 -8
v -3 20 -8
v 3 20 -8
v 5 20 -8
v 7 20 -8
v -5 20 -9
v -3 20 -9
v 3 20 -9
v 5 20 -9
v -3 20 -10
v 3 20 -10

# faces
f 3/1/1 2/1/1 1/1/1
f 4/1/1 2/1/1 3/1/1
f 9/1/1 6/1/1 5/1/1
f 10/1/1 6/1/1 9/1/1
f 11/1/1 8/1/1 7/1/1
f 12/1/1 8/1/1 11/1/1
f 19/1/1 14/1/1 13/1/1
f 19/2/1 15/2/1 14/2/1
f 20/2/1 15/2/1 19/2/1
f 21/2/1 17/2/1 16/2/1
f 22/1/1 18/1/1 17/1/1
f 22/2/1 17/2/1 21/2/1
f 23/1/1 20/1/1 19/1/1
f 23/1/1 19/1/1 13/1/1
f 24/1/1 20/1/1 23/1/1
f 25/1/1 22/1/1 21/1/1
f 26/1/1 18/1/1 22/1/1
f 26/1/1 22/1/1 25/1/1
f 31/1/1 28/1/1 27/1/1
f 32/1/1 28/1/1 31/1/1
f 33/1/1 30/1/1 29/1/1
f 34/1/1 30/1/1 33/1/1
f 39/1/1 36/1/1 35/1/1
f 40/1/1 36/1/1 39/1/1
f 41/1/1 38/1/1 37/1/1
f 42/1/1 38/1/1 41/1/1
f 47/1/1 44/1/1 43/1/1
f 48/1/1 46/1/1 45/1/1
f 49/1/1 47/1/1 43/1/1
f 50/1/1 47/1/1 49/1/1
f 51/1/1 46/1/1 48/1/1
f 52/1/1 46/1/1 51/1/1
f 53/1/2 54/1/2 57/1/2
f 55/1/2 56/1/2 58/1/2
f 53/1/2 57/1/2 59/1/2
f 59/1/2 57/1/2 60/1/2
f 58/1/2 56/1/2 61/1/2
f 61/1/2 56/1/2 62/1/2
f 63/1/2 64/1/2 67/1/2
f 67/1/2 64/1/2 68/1/2
f 65/1/2 66/1/2 69/1/2
f 69/1/2 66/1/2 70/1/2
f 71/1/2 72/1/2 75/1/2
f 75/1/2 72/1/2 76/1/2
f 73/1/2 74/1/2 77/1/2
f 77/1/2 74/1/2 78/1/2
f 79/1/2 80/1/2 85/1/2
f 80/2/2 81/2/2 85/2/2
f 85/2/2 81/2/2 86/2/2
f 82/2/2 83/2/2 87/2/2
f 83/1/2 84/1/2 88/1/2
f 87/2/2 83/2/2 88/2/2
f 85/1/2 86/1/2 89/1/2
f 79/1/2 85/1/2 89/1/2
f 89/1/2 86/1/2 90/1/2
f 87/1/2 88/1/2 91/1/2
f 88/1/2 84/1/2 92/1/2
f 91/1/2 88/1/2 92/1/2
f 93/1/2 94/1/2 97/1/2
f 97/1/2 94/1/2 98/1/2
f 95/1/2 96/1/2 99/1/2
f 99/1/2 96/1/2 100/1/2
f 101/1/2 102/1/2 103/1/2
f 103/1/2 102/1/2 104/1/2
f 107/1/3 106/1/3 105/1/3
f 108/1/3 106/1/3 107/1/3
f 111/1/3 110/1/3 109/1/3
f 112/1/3 110/1/3 111/1/3
f 113/2/3 112/2/3 111/2/3
f 114/1/3 110/1/3 112/1/3
f 114/2/3 112/2/3 113/2/3
f 115/1/3 110/1/3 114/1/3
f 119/2/3 117/2/3 116/2/3
f 120/1/3 118/1/3 117/1/3
f 120/2/3 117/2/3 119/2/3
f 121/1/3 120/1/3 119/1/3
f 122/1/3 118/1/3 120/1/3
f 122/1/3 120/1/3 121/1/3
f 125/1/3 124/1/3 123/1/3
f 126/1/3 124/1/3 125/1/3
f 129/1/3 128/1/3 127/1/3
f 130/1/3 128/1/3 129/1/3
f 133/1/3 132/1/3 131/1/3
f 134/1/3 132/1/3 133/1/3
f 137/1/3 136/1/3 135/1/3
f 138/1/3 136/1/3 137/1/3
f 141/1/3 140/1/3 139/1/3
f 142/1/3 140/1/3 141/1/3
f 143/1/3 140/1/3 142/1/3
f 147/1/3 145/1/3 144/1/3
f 147/1/3 146/1/3 145/1/3
f 148/1/3 146/1/3 147/1/3
f 151/1/3 150/1/3 149/1/3
f 152/1/3 150/1/3 151/1/3
f 155/1/3 154/1/3 153/1/3
f 156/1/3 154/1/3 155/1/3
f 157/1/4 158/1/4 159/1/4
f 159/1/4 158/1/4 160/1/4
f 161/1/4 162/1/4 163/1/4
f 163/1/4 162/1/4 164/1/4
f 165/1/4 166/1/4 167/1/4
f 167/1/4 166/1/4 168/1/4
f 168/1/4 166/1/4 169/1/4
f 170/1/4 171/1/4 173/1/4
f 171/1/4 172/1/4 173/1/4
f 173/1/4 172/1/4 174/1/4
f 175/1/4 176/1/4 177/1/4
f 177/1/4 176/1/4 178/1/4
f 179/1/4 180/1/4 181/1/4
f 181/1/4 180/1/4 182/1/4
f 183/1/4 184/1/4 185/1/4
f 185/1/4 184/1/4 186/1/4
f 187/1/4 188/1/4 189/1/4
f 189/1/4 188/1/4 190/1/4
f 191/1/4 192/1/4 193/1/4
f 193/1/4 192/1/4 194/1/4
f 193/2/4 194/2/4 195/2/4
f 194/1/4 192/1/4 196/1/4
f 195/2/4 194/2/4 196/2/4
f 196/1/4 192/1/4 197/1/4
f 198/2/4 199/2/4 201/2/4
f 199/1/4 200/1/4 202/1/4
f 201/2/4 199/2/4 202/2/4
f 201/1/4 202/1/4 203/1/4
f 202/1/4 200/1/4 204/1/4
f 203/1/4 202/1/4 204/1/4
f 205/1/4 206/1/4 207/1/4
f 207/1/4 206/1/4 208/1/4
f 213/1/5 210/1/5 209/1/5
f 214/1/5 210/1/5 213/1/5
f 218/1/5 212/1/5 211/1/5
f 219/2/5 213/2/5 212/2/5
f 219/1/5 212/1/5 218/1/5
f 220/4/5 214/4/5 213/4/5
f 220/2/5 213/2/5 219/2/5
f 221/2/5 215/2/5 214/2/5
f 221/4/5 214/4/5 220/4/5
f 222/1/5 216/1/5 215/1/5
f 222/2/5 215/2/5 221/2/5
f 223/1/5 216/1/5 222/1/5
f 226/1/5 218/1/5 217/1/5
f 227/4/5 219/4/5 218/4/5
f 227/4/5 220/4/5 219/4/5
f 227/1/5 218/1/5 226/1/5
f 228/1/5 221/1/5 220/1/5
f 228/4/5 220/4/5 227/4/5
f 229/4/5 222/4/5 221/4/5
f 229/1/5 221/1/5 228/1/5
f 229/4/5 223/4/5 222/4/5
f 230/1/5 224/1/5 223/1/5
f 230/4/5 223/4/5 229/4/5
f 231/1/5 224/1/5 230/1/5
f 233/1/5 226/1/5 225/1/5
f 234/4/5 227/4/5 226/4/5
f 234/1/5 226/1/5 233/1/5
f 235/4/5 227/4/5 234/4/5
f 236/1/5 229/1/5 228/1/5
f 236/4/5 227/4/5 235/4/5
f 236/1/5 228/1/5 227/1/5
f 236/1/5 230/1/5 229/1/5
f 237/1/5 230/1/5 236/1/5
f 238/1/5 230/1/5 237/1/5
f 239/1/5 230/1/5 238/1/5
f 240/1/5 230/1/5 239/1/5
f 241/4/5 231/4/5 230/4/5
f 241/1/5 230/1/5 240/1/5
f 242/4/5 231/4/5 241/4/5
f 243/1/5 232/1/5 231/1/5
f 243/4/5 231/4/5 242/4/5
f 244/1/5 232/1/5 243/1/5
f 246/2/5 234/2/5 233/2/5
f 247/4/5 235/4/5 234/4/5
f 247/2/5 234/2/5 246/2/5
f 248/1/5 236/1/5 235/1/5
f 248/4/5 235/4/5 247/4/5
f 248/1/5 237/1/5 236/1/5
f 249/1/5 237/1/5 248/1/5
f 250/1/5 237/1/5 249/1/5
f 251/1/5 242/1/5 241/1/5
f 251/1/5 241/1/5 240/1/5
f 252/1/5 242/1/5 251/1/5
f 253/4/5 243/4/5 242/4/5
f 253/1/5 242/1/5 252/1/5
f 254/2/5 244/2/5 243/2/5
f 254/4/5 243/4/5 253/4/5
f 255/2/5 244/2/5 254/2/5
f 257/4/5 250/4/5 249/4/5
f 257/1/5 248/1/5 247/1/5
f 257/1/5 249/1/5 248/1/5
f 258/1/5 237/1/5 250/1/5
f 258/4/5 250/4/5 257/4/5
f 259/4/5 252/4/5 251/4/5
f 259/1/5 251/1/5 240/1/5
f 260/1/5 253/1/5 252/1/5
f 260/4/5 252/4/5 259/4/5
f 260/1/5 254/1/5 253/1/5
f 262/1/5 246/1/5 245/1/5
f 263/4/5 247/4/5 246/4/5
f 263/1/5 246/1/5 262/1/5
f 264/1/5 257/1/5 247/1/5
f 264/4/5 247/4/5 263/4/5
f 264/1/5 258/1/5 257/1/5
f 265/1/5 254/1/5 260/1/5
f 265/4/5 255/4/5 254/4/5
f 265/1/5 260/1/5 259/1/5
f 266/1/5 256/1/5 255/1/5
f 266/4/5 255/4/5 265/4/5
f 267/1/5 256/1/5 266/1/5
f 269/1/5 258/1/5 264/1/5
f 269/1/5 264/1/5 263/1/5
f 270/4/5 238/4/5 237/4/5
f 270/1/5 258/1/5 269/1/5
f 270/1/5 237/1/5 258/1/5
f 271/1/5 239/1/5 238/1/5
f 271/4/5 238/4/5 270/4/5
f 272/4/5 240/4/5 239/4/5
f 272/1/5 239/1/5 271/1/5
f 273/1/5 265/1/5 259/1/5
f 273/4/5 240/4/5 272/4/5
f 273/1/5 266/1/5 265/1/5
f 273/1/5 259/1/5 240/1/5
f 274/1/5 266/1/5 273/1/5
f 275/4/5 271/4/5 270/4/5
f 275/1/5 269/1/5 263/1/5
f 275/4/5 274/4/5 273/4/5
f 275/4/5 273/4/5 272/4/5
f 275/4/5 270/4/5 269/4/5
f 275/4/5 272/4/5 271/4/5
f 276/4/5 274/4/5 275/4/5
f 277/4/5 274/4/5 276/4/5
f 278/4/5 274/4/5 277/4/5
f 279/4/5 274/4/5 278/4/5
f 280/1/5 266/1/5 274/1/5
f 280/4/5 274/4/5 279/4/5
f 281/1/5 275/1/5 263/1/5
f 281/1/5 276/1/5 275/1/5
f 282/4/5 277/4/5 276/4/5
f 282/1/5 276/1/5 281/1/5
f 283/1/5 278/1/5 277/1/5
f 283/4/5 277/4/5 282/4/5
f 284/4/5 279/4/5 278/4/5
f 284/1/5 278/1/5 283/1/5
f 285/1/5 280/1/5 279/1/5
f 285/4/5 279/4/5 284/4/5
f 286/1/5 266/1/5 280/1/5
f 286/1/5 280/1/5 285/1/5
f 287/4/5 283/4/5 282/4/5
f 287/4/5 285/4/5 284/4/5
f 287/4/5 286/4/5 285/4/5
f 287/4/5 282/4/5 281/4/5
f 287/1/5 281/1/5 263/1/5
f 287/4/5 284/4/5 283/4/5
f 288/4/5 286/4/5 287/4/5
f 289/4/5 286/4/5 288/4/5
f 290/4/5 286/4/5 289/4/5
f 291/4/5 286/4/5 290/4/5
f 292/1/5 266/1/5 286/1/5
f 292/4/5 286/4/5 291/4/5
f 293/1/5 262/1/5 261/1/5
f 294/4/5 263/4/5 262/4/5
f 294/1/5 262/1/5 293/1/5
f 295/1/5 287/1/5 263/1/5
f 295/4/5 263/4/5 294/4/5
f 295/1/5 288/1/5 287/1/5
f 296/1/5 288/1/5 295/1/5
f 297/1/5 266/1/5 292/1/5
f 297/1/5 292/1/5 291/1/5
f 298/4/5 267/4/5 266/4/5
f 298/1/5 266/1/5 297/1/5
f 299/1/5 268/1/5 267/1/5
f 299/4/5 267/4/5 298/4/5
f 300/1/5 268/1/5 299/1/5
f 301/1/5 288/1/5 296/1/5
f 302/1/5 288/1/5 301/1/5
f 303/1/5 297/1/5 291/1/5
f 304/1/5 297/1/5 303/1/5
f 305/1/5 295/1/5 294/1/5
f 306/4/5 296/4/5 295/4/5
f 306/1/5 295/1/5 305/1/5
f 307/1/5 301/1/5 296/1/5
f 307/4/5 296/4/5 306/4/5
f 308/1/5 301/1/5 307/1/5
f 309/4/5 302/4/5 301/4/5
f 309/1/5 301/1/5 308/1/5
f 310/1/5 288/1/5 302/1/5
f 310/4/5 302/4/5 309/4/5
f 311/1/5 303/1/5 291/1/5
f 311/4/5 304/4/5 303/4/5
f 312/1/5 297/1/5 304/1/5
f 312/4/5 304/4/5 311/4/5
f 313/1/5 297/1/5 312/1/5
f 314/4/5 298/4/5 297/4/5
f 314/1/5 297/1/5 313/1/5
f 315/1/5 299/1/5 298/1/5
f 315/4/5 298/4/5 314/4/5
f 316/1/5 299/1/5 315/1/5
f 317/2/5 307/2/5 306/2/5
f 318/4/5 308/4/5 307/4/5
f 318/2/5 307/2/5 317/2/5
f 319/1/5 309/1/5 308/1/5
f 319/4/5 308/4/5 318/4/5
f 319/1/5 310/1/5 309/1/5
f 320/1/5 310/1/5 319/1/5
f 321/1/5 313/1/5 312/1/5
f 321/1/5 312/1/5 311/1/5
f 322/4/5 314/4/5 313/4/5
f 322/1/5 313/1/5 321/1/5
f 323/2/5 315/2/5 314/2/5
f 323/4/5 314/4/5 322/4/5
f 324/2/5 315/2/5 323/2/5
f 325/1/5 318/1/5 317/1/5
f 326/4/5 320/4/5 319/4/5
f 326/1/5 318/1/5 325/1/5
f 326/4/5 319/4/5 318/4/5
f 327/1/5 310/1/5 320/1/5
f 327/4/5 320/4/5 326/4/5
f 328/1/5 288/1/5 310/1/5
f 328/1/5 310/1/5 327/1/5
f 329/4/5 289/4/5 288/4/5
f 329/1/5 288/1/5 328/1/5
f 330/1/5 290/1/5 289/1/5
f 330/4/5 289/4/5 329/4/5
f 331/4/5 291/4/5 290/4/5
f 331/1/5 290/1/5 330/1/5
f 332/1/5 321/1/5 311/1/5
f 332/4/5 291/4/5 331/4/5
f 332/1/5 311/1/5 291/1/5
f 333/1/5 321/1/5 332/1/5
f 334/4/5 323/4/5 322/4/5
f 334/1/5 321/1/5 333/1/5
f 334/4/5 322/4/5 321/4/5
f 335/1/5 324/1/5 323/1/5
f 335/4/5 323/4/5 334/4/5
f 336/1/5 324/1/5 335/1/5
f 337/1/5 327/1/5 326/1/5
f 338/4/5 328/4/5 327/4/5
f 338/1/5 327/1/5 337/1/5
f 339/4/5 328/4/5 338/4/5
f 340/1/5 330/1/5 329/1/5
f 340/4/5 328/4/5 339/4/5
f 340/1/5 331/1/5 330/1/5
f 340/1/5 329/1/5 328/1/5
f 340/1/5 333/1/5 332/1/5
f 340/1/5 332/1/5 331/1/5
f 341/4/5 334/4/5 333/4/5
f 341/1/5 333/1/5 340/1/5
f 342/4/5 334/4/5 341/4/5
f 343/1/5 335/1/5 334/1/5
f 343/4/5 334/4/5 342/4/5
f 344/1/5 335/1/5 343/1/5
f 345/1/5 339/1/5 338/1/5
f 346/2/5 340/2/5 339/2/5
f 346/1/5 339/1/5 345/1/5
f 347/4/5 341/4/5 340/4/5
f 347/2/5 340/2/5 346/2/5
f 348/2/5 342/2/5 341/2/5
f 348/4/5 341/4/5 347/4/5
f 349/1/5 343/1/5 342/1/5
f 349/2/5 342/2/5 348/2/5
f 350/1/5 343/1/5 349/1/5
f 351/1/5 348/1/5 347/1/5
f 352/1/5 348/1/5 351/1/5
f 353/1/6 354/1/6 356/1/6
f 356/1/6 354/1/6 357/1/6
f 355/1/6 356/1/6 360/1/6
f 356/4/6 357/4/6 361/4/6
f 360/1/6 356/1/6 361/1/6
f 357/1/6 358/1/6 362/1/6
f 361/4/6 357/4/6 362/4/6
f 362/1/6 358/1/6 363/1/6
f 359/1/6 360/1/6 366/1/6
f 360/4/6 361/4/6 367/4/6
f 366/1/6 360/1/6 367/1/6
f 361/2/6 362/2/6 368/2/6
f 367/4/6 361/4/6 368/4/6
f 362/4/6 363/4/6 369/4/6
f 368/2/6 362/2/6 369/2/6
f 363/1/6 364/1/6 370/1/6
f 369/4/6 363/4/6 370/4/6
f 370/1/6 364/1/6 371/1/6
f 366/4/6 367/4/6 373/4/6
f 368/2/6 369/2/6 374/2/6
f 373/4/6 367/4/6 374/4/6
f 367/2/6 368/2/6 374/2/6
f 369/2/6 370/2/6 374/2/6
f 374/2/6 370/2/6 375/2/6
f 375/2/6 370/2/6 376/2/6
f 370/4/6 371/4/6 377/4/6
f 376/2/6 370/2/6 377/2/6
f 377/4/6 371/4/6 378/4/6
f 365/1/6 366/1/6 380/1/6
f 366/4/6 373/4/6 381/4/6
f 380/1/6 366/1/6 381/1/6
f 373/2/6 374/2/6 382/2/6
f 381/4/6 373/4/6 382/4/6
f 374/2/6 375/2/6 382/2/6
f 375/4/6 376/4/6 383/4/6
f 382/2/6 375/2/6 383/2/6
f 383/4/6 376/4/6 384/4/6
f 384/4/6 376/4/6 385/4/6
f 376/2/6 377/2/6 386/2/6
f 385/4/6 376/4/6 386/4/6
f 377/2/6 378/2/6 386/2/6
f 378/4/6 371/4/6 387/4/6
f 386/2/6 378/2/6 387/2/6
f 371/1/6 372/1/6 388/1/6
f 387/4/6 371/4/6 388/4/6
f 388/1/6 372/1/6 389/1/6
f 381/2/6 382/2/6 391/2/6
f 382/2/6 383/2/6 391/2/6
f 391/2/6 383/2/6 392/2/6
f 386/2/6 387/2/6 393/2/6
f 387/2/6 388/2/6 393/2/6
f 393/2/6 388/2/6 394/2/6
f 379/1/6 380/1/6 396/1/6
f 380/4/6 381/4/6 397/4/6
f 396/1/6 380/1/6 397/1/6
f 381/2/6 391/2/6 398/2/6
f 397/4/6 381/4/6 398/4/6
f 391/3/6 392/3/6 399/3/6
f 398/2/6 391/2/6 399/2/6
f 392/2/6 383/2/6 400/2/6
f 399/3/6 392/3/6 400/3/6
f 386/2/6 393/2/6 401/2/6
f 393/3/6 394/3/6 401/3/6
f 394/2/6 388/2/6 402/2/6
f 401/3/6 394/3/6 402/3/6
f 388/4/6 389/4/6 403/4/6
f 402/2/6 388/2/6 403/2/6
f 389/1/6 390/1/6 404/1/6
f 403/4/6 389/4/6 404/4/6
f 404/1/6 390/1/6 405/1/6
f 398/2/6 399/2/6 407/2/6
f 397/2/6 398/2/6 407/2/6
f 399/2/6 400/2/6 407/2/6
f 407/2/6 400/2/6 408/2/6
f 383/5/6 384/5/6 409/5/6
f 408/2/6 400/2/6 409/2/6
f 400/2/6 383/2/6 409/2/6
f 384/2/6 385/2/6 410/2/6
f 409/5/6 384/5/6 410/5/6
f 385/5/6 386/5/6 411/5/6
f 410/2/6 385/2/6 411/2/6
f 386/2/6 401/2/6 412/2/6
f 411/5/6 386/5/6 412/5/6
f 402/2/6 403/2/6 412/2/6
f 401/2/6 402/2/6 412/2/6
f 403/2/6 404/2/6 412/2/6
f 412/2/6 404/2/6 413/2/6
f 413/2/6 404/2/6 414/2/6
f 408/5/6 409/5/6 415/5/6
f 407/4/6 408/4/6 415/4/6
f 409/4/6 410/4/6 416/4/6
f 415/5/6 409/5/6 416/5/6
f 410/4/6 411/4/6 416/4/6
f 411/4/6 412/4/6 416/4/6
f 412/5/6 413/5/6 417/5/6
f 416/4/6 412/4/6 417/4/6
f 413/4/6 414/4/6 418/4/6
f 417/5/6 413/5/6 418/5/6
f 407/4/6 415/4/6 419/4/6
f 415/2/6 416/2/6 419/2/6
f 416/4/6 417/4/6 420/4/6
f 419/2/6 416/2/6 420/2/6
f 417/2/6 418/2/6 421/2/6
f 420/4/6 417/4/6 421/4/6
f 418/4/6 414/4/6 422/4/6
f 421/2/6 418/2/6 422/2/6
f 407/4/6 419/4/6 423/4/6
f 397/2/6 407/2/6 423/2/6
f 420/5/6 421/5/6 424/5/6
f 423/4/6 419/4/6 424/4/6
f 419/5/6 420/5/6 424/5/6
f 421/5/6 422/5/6 424/5/6
f 424/5/6 422/5/6 425/5/6
f 425/5/6 422/5/6 426/5/6
f 426/5/6 422/5/6 427/5/6
f 427/5/6 422/5/6 428/5/6
f 422/4/6 414/4/6 429/4/6
f 428/5/6 422/5/6 429/5/6
f 414/2/6 404/2/6 430/2/6
f 429/4/6 414/4/6 430/4/6
f 395/1/6 396/1/6 431/1/6
f 396/4/6 397/4/6 432/4/6
f 431/1/6 396/1/6 432/1/6
f 397/2/6 423/2/6 433/2/6
f 432/4/6 397/4/6 433/4/6
f 423/2/6 424/2/6 433/2/6
f 424/2/6 425/2/6 433/2/6
f 433/2/6 425/2/6 434/2/6
f 434/2/6 425/2/6 435/2/6
f 435/2/6 425/2/6 436/2/6
f 428/2/6 429/2/6 437/2/6
f 429/2/6 430/2/6 437/2/6
f 437/2/6 430/2/6 438/2/6
f 430/2/6 404/2/6 439/2/6
f 438/2/6 430/2/6 439/2/6
f 404/4/6 405/4/6 440/4/6
f 439/2/6 404/2/6 440/2/6
f 405/1/6 406/1/6 441/1/6
f 440/4/6 405/4/6 441/4/6
f 441/1/6 406/1/6 442/1/6
f 435/3/6 436/3/6 443/3/6
f 434/2/6 435/2/6 443/2/6
f 436/2/6 425/2/6 444/2/6
f 443/3/6 436/3/6 444/3/6
f 437/3/6 438/3/6 445/3/6
f 428/2/6 437/2/6 445/2/6
f 438/2/6 439/2/6 446/2/6
f 445/3/6 438/3/6 446/3/6
f 432/1/6 433/1/6 447/1/6
f 433/4/6 434/4/6 448/4/6
f 447/1/6 433/1/6 448/1/6
f 434/2/6 443/2/6 449/2/6
f 448/4/6 434/4/6 449/4/6
f 443/2/6 444/2/6 449/2/6
f 449/2/6 444/2/6 450/2/6
f 444/2/6 425/2/6 451/2/6
f 450/2/6 444/2/6 451/2/6
f 425/5/6 426/5/6 451/5/6
f 426/2/6 427/2/6 452/2/6
f 451/5/6 426/5/6 452/5/6
f 427/5/6 428/5/6 453/5/6
f 452/2/6 427/2/6 453/2/6
f 428/2/6 445/2/6 454/2/6
f 453/5/6 428/5/6 454/5/6
f 445/2/6 446/2/6 454/2/6
f 446/2/6 439/2/6 455/2/6
f 454/2/6 446/2/6 455/2/6
f 439/4/6 440/4/6 456/4/6
f 455/2/6 439/2/6 456/2/6
f 440/1/6 441/1/6 457/1/6
f 456/4/6 440/4/6 457/4/6
f 457/1/6 441/1/6 458/1/6
f 449/4/6 450/4/6 459/4/6
f 448/1/6 449/1/6 459/1/6
f 450/2/6 451/2/6 460/2/6
f 459/4/6 450/4/6 460/4/6
f 460/2/6 451/2/6 461/2/6
f 451/4/6 452/4/6 462/4/6
f 461/2/6 451/2/6 462/2/6
f 452/4/6 453/4/6 462/4/6
f 453/4/6 454/4/6 462/4/6
f 454/2/6 455/2/6 463/2/6
f 462/4/6 454/4/6 463/4/6
f 463/2/6 455/2/6 464/2/6
f 455/4/6 456/4/6 465/4/6
f 464/2/6 455/2/6 465/2/6
f 459/1/6 460/1/6 466/1/6
f 448/1/6 459/1/6 466/1/6
f 466/1/6 460/1/6 467/1/6
f 460/4/6 461/4/6 468/4/6
f 467/1/6 460/1/6 468/1/6
f 461/2/6 462/2/6 469/2/6
f 468/4/6 461/4/6 469/4/6
f 463/2/6 464/2/6 469/2/6
f 462/2/6 463/2/6 469/2/6
f 469/2/6 464/2/6 470/2/6
f 470/2/6 464/2/6 471/2/6
f 464/4/6 465/4/6 472/4/6
f 471/2/6 464/2/6 472/2/6
f 456/1/6 457/1/6 473/1/6
f 472/4/6 465/4/6 473/4/6
f 465/4/6 456/4/6 473/4/6
f 473/1/6 457/1/6 474/1/6
f 467/1/6 468/1/6 475/1/6
f 468/1/6 469/1/6 475/1/6
f 469/4/6 470/4/6 476/4/6
f 475/1/6 469/1/6 476/1/6
f 470/2/6 471/2/6 477/2/6
f 476/4/6 470/4/6 477/4/6
f 471/4/6 472/4/6 478/4/6
f 477/2/6 471/2/6 478/2/6
f 472/1/6 473/1/6 479/1/6
f 478/4/6 472/4/6 479/4/6
f 479/1/6 473/1/6 480/1/6
f 476/1/6 477/1/6 481/1/6
f 477/4/6 478/4/6 482/4/6
f 481/1/6 477/1/6 482/1/6
f 478/1/6 479/1/6 483/1/6
f 482/4/6 478/4/6 483/4/6
f 483/1/6 479/1/6 484/1/6
f 482/1/6 483/1/6 485/1/6
f 485/1/6 483/1/6 486/1/6
